<svg viewBox="0 0 512 512" xmlns="http://www.w3.org/2000/svg" fill="none" stroke="#000000" stroke-width="16" stroke-linecap="round" stroke-linejoin="round">

  <!-- Book: outer covers / base -->
  <path d="M16,150 L16,480 Q16,496 32,496 L232,496 Q256,496 256,480" />
  <path d="M496,150 L496,480 Q496,496 480,496 L280,496 Q256,496 256,480" />

  <!-- Book: pages -->
  <path d="M64,104 Q44,118 44,144 L44,444 Q44,455 56,452 Q150,436 248,454 Q252,455 256,462" />
  <path d="M448,104 Q468,118 468,144 L468,444 Q468,455 456,452 Q362,436 264,454 Q260,455 256,462" />

  <!-- Book: spine -->
  <path d="M256,180 L256,440" />

  <!-- Globe (same footprint as the original rainbow) -->
  <circle cx="256" cy="190" r="170" />

  <!-- Globe: equator -->
  <path d="M86,190 L426,190" />

  <!-- Globe: central meridian -->
  <path d="M256,20 L256,360" />

  <!-- Globe: side meridian (lens shape) -->
  <ellipse cx="256" cy="190" rx="80" ry="170" />

</svg>
